<mxfile host="app.diagrams.net" modified="2023-10-10T19:08:20.000Z" agent="Mozilla/5.0 (Windows NT 10.0; Win64; x64) AppleWebKit/537.36 (KHTML, like Gecko) Chrome/117.0.0.0 Safari/537.36" etag="mtaPDEED04I6qDB5LUE4" version="22.0.4" type="device">
  <diagram id="C5RBs43oDa-KdzZeNtuy" name="Page-1">
    <mxGraphModel dx="1723" dy="753" grid="1" gridSize="10" guides="1" tooltips="1" connect="1" arrows="1" fold="1" page="1" pageScale="1" pageWidth="827" pageHeight="1169" math="0" shadow="0">
      <root>
        <mxCell id="WIyWlLk6GJQsqaUBKTNV-0" />
        <mxCell id="WIyWlLk6GJQsqaUBKTNV-1" parent="WIyWlLk6GJQsqaUBKTNV-0" />
        <mxCell id="gm-yubCqo1Sg5wJiPhqE-2" value="" style="edgeStyle=orthogonalEdgeStyle;rounded=0;orthogonalLoop=1;jettySize=auto;html=1;" parent="WIyWlLk6GJQsqaUBKTNV-1" source="gm-yubCqo1Sg5wJiPhqE-0" target="gm-yubCqo1Sg5wJiPhqE-1" edge="1">
          <mxGeometry relative="1" as="geometry" />
        </mxCell>
        <mxCell id="gm-yubCqo1Sg5wJiPhqE-0" value="Inicio" style="strokeWidth=2;html=1;shape=mxgraph.flowchart.terminator;whiteSpace=wrap;" parent="WIyWlLk6GJQsqaUBKTNV-1" vertex="1">
          <mxGeometry x="160" y="20" width="140" height="60" as="geometry" />
        </mxCell>
        <mxCell id="gm-yubCqo1Sg5wJiPhqE-4" style="edgeStyle=orthogonalEdgeStyle;rounded=0;orthogonalLoop=1;jettySize=auto;html=1;" parent="WIyWlLk6GJQsqaUBKTNV-1" source="gm-yubCqo1Sg5wJiPhqE-1" target="gm-yubCqo1Sg5wJiPhqE-3" edge="1">
          <mxGeometry relative="1" as="geometry" />
        </mxCell>
        <mxCell id="gm-yubCqo1Sg5wJiPhqE-1" value="Entero n" style="rounded=0;whiteSpace=wrap;html=1;" parent="WIyWlLk6GJQsqaUBKTNV-1" vertex="1">
          <mxGeometry x="170" y="100" width="120" height="60" as="geometry" />
        </mxCell>
        <mxCell id="gm-yubCqo1Sg5wJiPhqE-11" style="edgeStyle=orthogonalEdgeStyle;rounded=0;orthogonalLoop=1;jettySize=auto;html=1;" parent="WIyWlLk6GJQsqaUBKTNV-1" source="gm-yubCqo1Sg5wJiPhqE-3" target="gm-yubCqo1Sg5wJiPhqE-5" edge="1">
          <mxGeometry relative="1" as="geometry" />
        </mxCell>
        <mxCell id="gm-yubCqo1Sg5wJiPhqE-3" value="Entero suma_acumulada &amp;lt;--0" style="rounded=0;whiteSpace=wrap;html=1;" parent="WIyWlLk6GJQsqaUBKTNV-1" vertex="1">
          <mxGeometry x="130" y="180" width="200" height="60" as="geometry" />
        </mxCell>
        <mxCell id="gm-yubCqo1Sg5wJiPhqE-12" style="edgeStyle=orthogonalEdgeStyle;rounded=0;orthogonalLoop=1;jettySize=auto;html=1;" parent="WIyWlLk6GJQsqaUBKTNV-1" source="gm-yubCqo1Sg5wJiPhqE-5" target="gm-yubCqo1Sg5wJiPhqE-6" edge="1">
          <mxGeometry relative="1" as="geometry" />
        </mxCell>
        <mxCell id="gm-yubCqo1Sg5wJiPhqE-5" value="Entero índice &amp;lt;-- 1" style="whiteSpace=wrap;html=1;" parent="WIyWlLk6GJQsqaUBKTNV-1" vertex="1">
          <mxGeometry x="170" y="260" width="120" height="60" as="geometry" />
        </mxCell>
        <mxCell id="gm-yubCqo1Sg5wJiPhqE-13" style="edgeStyle=orthogonalEdgeStyle;rounded=0;orthogonalLoop=1;jettySize=auto;html=1;" parent="WIyWlLk6GJQsqaUBKTNV-1" source="gm-yubCqo1Sg5wJiPhqE-6" target="gm-yubCqo1Sg5wJiPhqE-10" edge="1">
          <mxGeometry relative="1" as="geometry" />
        </mxCell>
        <mxCell id="gm-yubCqo1Sg5wJiPhqE-6" value="Imprimir (&quot;Dime un número&quot;)" style="shape=parallelogram;perimeter=parallelogramPerimeter;whiteSpace=wrap;html=1;fixedSize=1;" parent="WIyWlLk6GJQsqaUBKTNV-1" vertex="1">
          <mxGeometry x="110" y="340" width="240" height="60" as="geometry" />
        </mxCell>
        <mxCell id="ArU2y2GqYF4odjyeMt7Y-38" style="edgeStyle=orthogonalEdgeStyle;rounded=0;orthogonalLoop=1;jettySize=auto;html=1;" edge="1" parent="WIyWlLk6GJQsqaUBKTNV-1" source="gm-yubCqo1Sg5wJiPhqE-10" target="ArU2y2GqYF4odjyeMt7Y-36">
          <mxGeometry relative="1" as="geometry" />
        </mxCell>
        <mxCell id="gm-yubCqo1Sg5wJiPhqE-10" value="Leer (n)" style="shape=parallelogram;perimeter=parallelogramPerimeter;whiteSpace=wrap;html=1;fixedSize=1;" parent="WIyWlLk6GJQsqaUBKTNV-1" vertex="1">
          <mxGeometry x="170" y="420" width="120" height="60" as="geometry" />
        </mxCell>
        <mxCell id="ArU2y2GqYF4odjyeMt7Y-39" style="edgeStyle=orthogonalEdgeStyle;rounded=0;orthogonalLoop=1;jettySize=auto;html=1;entryX=0.5;entryY=0;entryDx=0;entryDy=0;" edge="1" parent="WIyWlLk6GJQsqaUBKTNV-1" source="ArU2y2GqYF4odjyeMt7Y-36" target="ArU2y2GqYF4odjyeMt7Y-37">
          <mxGeometry relative="1" as="geometry" />
        </mxCell>
        <mxCell id="ArU2y2GqYF4odjyeMt7Y-59" value="True" style="edgeLabel;html=1;align=center;verticalAlign=middle;resizable=0;points=[];" vertex="1" connectable="0" parent="ArU2y2GqYF4odjyeMt7Y-39">
          <mxGeometry x="-0.1337" y="-2" relative="1" as="geometry">
            <mxPoint as="offset" />
          </mxGeometry>
        </mxCell>
        <mxCell id="ArU2y2GqYF4odjyeMt7Y-56" style="edgeStyle=orthogonalEdgeStyle;rounded=0;orthogonalLoop=1;jettySize=auto;html=1;" edge="1" parent="WIyWlLk6GJQsqaUBKTNV-1" source="ArU2y2GqYF4odjyeMt7Y-36">
          <mxGeometry relative="1" as="geometry">
            <mxPoint x="410" y="800" as="targetPoint" />
          </mxGeometry>
        </mxCell>
        <mxCell id="ArU2y2GqYF4odjyeMt7Y-60" value="False" style="edgeLabel;html=1;align=center;verticalAlign=middle;resizable=0;points=[];" vertex="1" connectable="0" parent="ArU2y2GqYF4odjyeMt7Y-56">
          <mxGeometry x="-0.5533" y="3" relative="1" as="geometry">
            <mxPoint as="offset" />
          </mxGeometry>
        </mxCell>
        <mxCell id="ArU2y2GqYF4odjyeMt7Y-36" value="indice&amp;lt;=n" style="rhombus;whiteSpace=wrap;html=1;" vertex="1" parent="WIyWlLk6GJQsqaUBKTNV-1">
          <mxGeometry x="145" y="600" width="130" height="80" as="geometry" />
        </mxCell>
        <mxCell id="ArU2y2GqYF4odjyeMt7Y-42" style="edgeStyle=orthogonalEdgeStyle;rounded=0;orthogonalLoop=1;jettySize=auto;html=1;entryX=0.5;entryY=0;entryDx=0;entryDy=0;" edge="1" parent="WIyWlLk6GJQsqaUBKTNV-1" source="ArU2y2GqYF4odjyeMt7Y-37" target="ArU2y2GqYF4odjyeMt7Y-41">
          <mxGeometry relative="1" as="geometry" />
        </mxCell>
        <mxCell id="ArU2y2GqYF4odjyeMt7Y-37" value="suma_acumulada = suma_acumulada + indice" style="rounded=0;whiteSpace=wrap;html=1;" vertex="1" parent="WIyWlLk6GJQsqaUBKTNV-1">
          <mxGeometry x="-92" y="690" width="200" height="60" as="geometry" />
        </mxCell>
        <mxCell id="ArU2y2GqYF4odjyeMt7Y-58" style="edgeStyle=orthogonalEdgeStyle;rounded=0;orthogonalLoop=1;jettySize=auto;html=1;" edge="1" parent="WIyWlLk6GJQsqaUBKTNV-1" source="ArU2y2GqYF4odjyeMt7Y-40" target="ArU2y2GqYF4odjyeMt7Y-57">
          <mxGeometry relative="1" as="geometry" />
        </mxCell>
        <mxCell id="ArU2y2GqYF4odjyeMt7Y-40" value="Imprimir (&quot;El total acumulado es&quot; + suma_acumulada)" style="shape=parallelogram;perimeter=parallelogramPerimeter;whiteSpace=wrap;html=1;fixedSize=1;" vertex="1" parent="WIyWlLk6GJQsqaUBKTNV-1">
          <mxGeometry x="250" y="810" width="260" height="60" as="geometry" />
        </mxCell>
        <mxCell id="ArU2y2GqYF4odjyeMt7Y-41" value="indice=indice+1" style="rounded=0;whiteSpace=wrap;html=1;" vertex="1" parent="WIyWlLk6GJQsqaUBKTNV-1">
          <mxGeometry x="-52" y="810" width="120" height="60" as="geometry" />
        </mxCell>
        <mxCell id="ArU2y2GqYF4odjyeMt7Y-50" value="" style="shape=partialRectangle;whiteSpace=wrap;html=1;bottom=1;right=1;left=1;top=0;fillColor=none;routingCenterX=-0.5;direction=south;" vertex="1" parent="WIyWlLk6GJQsqaUBKTNV-1">
          <mxGeometry x="-152" y="600" width="100" height="250" as="geometry" />
        </mxCell>
        <mxCell id="ArU2y2GqYF4odjyeMt7Y-54" style="edgeStyle=orthogonalEdgeStyle;rounded=0;orthogonalLoop=1;jettySize=auto;html=1;entryX=0;entryY=0;entryDx=0;entryDy=0;endArrow=none;endFill=0;" edge="1" parent="WIyWlLk6GJQsqaUBKTNV-1" source="ArU2y2GqYF4odjyeMt7Y-53" target="ArU2y2GqYF4odjyeMt7Y-50">
          <mxGeometry relative="1" as="geometry" />
        </mxCell>
        <mxCell id="ArU2y2GqYF4odjyeMt7Y-53" value="" style="line;strokeWidth=1;html=1;perimeter=backbonePerimeter;points=[];outlineConnect=0;" vertex="1" parent="WIyWlLk6GJQsqaUBKTNV-1">
          <mxGeometry x="10" y="610" width="160" height="10" as="geometry" />
        </mxCell>
        <mxCell id="ArU2y2GqYF4odjyeMt7Y-57" value="Fin" style="strokeWidth=1;html=1;shape=mxgraph.flowchart.terminator;whiteSpace=wrap;" vertex="1" parent="WIyWlLk6GJQsqaUBKTNV-1">
          <mxGeometry x="315" y="940" width="130" height="60" as="geometry" />
        </mxCell>
      </root>
    </mxGraphModel>
  </diagram>
</mxfile>
